<svg width="40" height="40" viewBox="0 0 40 40" fill="none" xmlns="http://www.w3.org/2000/svg">
<path fill-rule="evenodd" clip-rule="evenodd" d="M31.6665 30H8.33315C7.41482 30 6.66648 29.2533 6.66648 28.3333V12.0833L18.9998 21.3333C19.2965 21.5567 19.6481 21.6667 19.9998 21.6667C20.3515 21.6667 20.7031 21.5567 20.9998 21.3333L33.3331 12.0833V28.3333C33.3331 29.2533 32.5848 30 31.6665 30ZM30.5548 10L19.9998 17.9167L9.4448 10H30.5548ZM31.6666 6.66666H8.33331C5.57665 6.66666 3.33331 8.90999 3.33331 11.6667V28.3333C3.33331 31.09 5.57665 33.3333 8.33331 33.3333H31.6666C34.4233 33.3333 36.6666 31.09 36.6666 28.3333V11.6667C36.6666 8.90999 34.4233 6.66666 31.6666 6.66666Z" fill="black"/>
<mask id="mask0_6_262" style="mask-type:luminance" maskUnits="userSpaceOnUse" x="3" y="6" width="34" height="28">
<path fill-rule="evenodd" clip-rule="evenodd" d="M31.6665 30H8.33315C7.41482 30 6.66648 29.2533 6.66648 28.3333V12.0833L18.9998 21.3333C19.2965 21.5567 19.6481 21.6667 19.9998 21.6667C20.3515 21.6667 20.7031 21.5567 20.9998 21.3333L33.3331 12.0833V28.3333C33.3331 29.2533 32.5848 30 31.6665 30ZM30.5548 10L19.9998 17.9167L9.4448 10H30.5548ZM31.6666 6.66666H8.33331C5.57665 6.66666 3.33331 8.90999 3.33331 11.6667V28.3333C3.33331 31.09 5.57665 33.3333 8.33331 33.3333H31.6666C34.4233 33.3333 36.6666 31.09 36.6666 28.3333V11.6667C36.6666 8.90999 34.4233 6.66666 31.6666 6.66666Z" fill="white"/>
</mask>
<g mask="url(#mask0_6_262)">
<rect width="40" height="40" fill="black"/>
</g>
</svg>
