<svg width="34" height="28" viewBox="0 0 34 28" fill="none" xmlns="http://www.w3.org/2000/svg">
<path id="Mask" fill-rule="evenodd" clip-rule="evenodd" d="M28.6667 24H5.33333C4.415 24 3.66667 23.2533 3.66667 22.3333V6.08333L16 15.3333C16.2967 15.5567 16.6483 15.6667 17 15.6667C17.3517 15.6667 17.7033 15.5567 18 15.3333L30.3333 6.08333V22.3333C30.3333 23.2533 29.585 24 28.6667 24V24ZM27.555 4L17 11.9167L6.44499 4H27.555ZM28.6668 0.666748H5.3335C2.57683 0.666748 0.333496 2.91008 0.333496 5.66675V22.3334C0.333496 25.0901 2.57683 27.3334 5.3335 27.3334H28.6668C31.4235 27.3334 33.6668 25.0901 33.6668 22.3334V5.66675C33.6668 2.91008 31.4235 0.666748 28.6668 0.666748V0.666748Z" fill="black"/>
</svg>
